# xmcd
#
# Track frame offsets:
#	150
#	12206
#	27570
#	43118
#	55224
#	73803
#	87831
#	99144
#	112320
#	127349
#	143179
#	158513
#	169438
#	169973
#	182434
#	194363
#
# Disc length: 2794 seconds
#
# Revision: 1
# Processed by: cddbd v1.5.2PL0 Copyright (c) Steve Scherf et al.
# Submitted via: audiograbber 1.83.01
#
DISCID=e50ae810
DTITLE=Hillcrest - Hillcrest Pure Country 48
DYEAR=2009
DGENRE=Country
TTITLE0=Cliffy Short  - The Next Voice You Hear
TTITLE1=Graham Rodger  - We're Gonna Be Alright
TTITLE2=Marie Hodson  - Cowboys Love Texas
TTITLE3=Andy Martin  - Honky Tonk Downstairs
TTITLE4=Casey Dilworth  - That's The Way It Goes
TTITLE5=Conny Lee  - Absence
TTITLE6=Cary Gamble  - Cowboys Ain't Supposed To Cry
TTITLE7=Steel City Quartet  - Forever He Is Mine
TTITLE8=Bonita Mercer  - Til Myself Comes Back To You
TTITLE9=Doug Bruce  - What I'm Drinkin About
TTITLE10=Graham Clark  - He's Back and I'm Blue
TTITLE11=The Beggars  - The Banjo Song
TTITLE12=Vannatta  - Vannatta ID
TTITLE13=Vannatta  - Put Gas in my Diesel
TTITLE14=Kathy Kane  - Paradise Tonight
TTITLE15=Glen Albrecht  - Bucking Hell Rodeo Downunder
EXTD=
EXTT0=
EXTT1=
EXTT2=
EXTT3=
EXTT4=
EXTT5=
EXTT6=
EXTT7=
EXTT8=
EXTT9=
EXTT10=
EXTT11=
EXTT12=
EXTT13=
EXTT14=
EXTT15=
PLAYORDER=
